<svg width="14" height="14" viewBox="0 0 14 14" fill="none" xmlns="http://www.w3.org/2000/svg">
<path d="M5.52 13.4201C6.30666 13.4201 7.42 12.8668 8.3 10.2201L8.78 8.78009L10.22 8.30009C12.86 7.42009 13.4133 6.30676 13.4133 5.52009C13.4133 4.74009 12.86 3.62009 10.22 2.73343L4.56 0.84676C3.14667 0.373427 1.96667 0.513426 1.24 1.23343C0.513332 1.95343 0.373333 3.14009 0.846666 4.55343L2.73333 10.2134C3.62 12.8668 4.73333 13.4201 5.52 13.4201ZM9.90667 3.68676C11.76 4.30676 12.42 5.04009 12.42 5.52009C12.42 6.00009 11.76 6.73343 9.90667 7.34676L8.22667 7.90676C8.08 7.95343 7.96 8.07343 7.91333 8.22009L7.35333 9.90009C6.74 11.7534 6 12.4134 5.52 12.4134C5.04 12.4134 4.30667 11.7534 3.68667 9.90009L1.8 4.24009C1.46 3.21343 1.52 2.37343 1.95333 1.94009C2.38667 1.50676 3.22667 1.45343 4.24667 1.79343L9.90667 3.68676Z" fill="white"/>
</svg>
